<svg id="Layer_1" data-name="Layer 1" xmlns="http://www.w3.org/2000/svg" viewBox="0 0 346.13 127.29"><defs><style>.cls-1{fill:#51bfcf;}.cls-2{fill:#e62c2e;}.cls-3{fill:#fff;}</style></defs><polygon class="cls-1" points="325.03 121.72 40.29 127.29 0 29.93 346.13 0 325.03 121.72"/><polygon class="cls-2" points="314.45 117.63 24.58 119.98 8.34 13.91 339.77 12.36 314.45 117.63"/><path class="cls-3" d="M76.51,73c-1.62,0-3.74,0-6.34-.11l-6.35-.15-8.46-.11c-.85,0-2.07,0-3.66-.11-.54-.1-.82-.39-.82-.88,0-2.06,0-5.14.1-9.25s.1-7.19.1-9.24-.07-5.47-.2-9.84-.2-7.66-.2-9.85c0-.41.29-.62.85-.62s1.41,0,2.54.09,2,.08,2.5.08,1.55,0,2.78-.1,2.15-.1,2.78-.1q.42,0,.39.54l0,.37q-.33,5.33-.76,16l0,7.48c0,2.41,0,4.18,0,5.29l.06.68c0,.23.16.37.42.43H63q2.55,0,7.63-.27T78.21,63c.51,0,.77.22.77.65A42.91,42.91,0,0,1,78.27,72c-.1.5-.29.79-.6.88A5.49,5.49,0,0,1,76.51,73Z" transform="translate(-1.87 -6.01)"/><path class="cls-3" d="M92.48,59.49q0,2.07.09,6.16c.06,2.73.08,4.77.08,6.13,0,.4-.23.63-.7.71a33.72,33.72,0,0,1-4.34.17,33.89,33.89,0,0,1-4.36-.17c-.41-.08-.67-.2-.76-.37a3.09,3.09,0,0,1-.06-.85q0-2,.09-5.88c0-2.61.08-4.58.08-5.9A104.59,104.59,0,0,0,82,46.69a5.71,5.71,0,0,1-.06-.6c0-.37.26-.56.77-.56a23.83,23.83,0,0,1,2.42.17c1.08.11,1.9.17,2.45.17s1.37,0,2.46-.14,1.92-.15,2.46-.15.68.19.68.57a4.38,4.38,0,0,1,0,.54A114.34,114.34,0,0,0,92.48,59.49Zm.74-21q0,4.92-5.55,4.92a6.11,6.11,0,0,1-3.94-1.24,4.73,4.73,0,0,1,.06-7.31,6,6,0,0,1,3.88-1.3,5.79,5.79,0,0,1,3.82,1.33A4.42,4.42,0,0,1,93.22,38.45Z" transform="translate(-1.87 -6.01)"/><path class="cls-3" d="M125.73,41.42c0,.38-.21.57-.62.57q-1.08,0-8.52-.43c-.12,4.78-.17,8.11-.17,10,0,2.23.08,5.58.26,10s.27,7.83.27,10.06c0,.36-.08.58-.25.68a4.37,4.37,0,0,1-.79.14,41.41,41.41,0,0,1-5,.22,39.48,39.48,0,0,1-5.12-.22.84.84,0,0,1-.8-.88q0-3.35.29-10c.18-4.45.28-7.79.28-10q0-2.2-.23-9.86c-3.77.38-6.79.57-9,.57-.3,0-.46-.09-.46-.28a17.31,17.31,0,0,1,.4-2.18c.3-1.33.47-2.13.51-2.41.06-.89.12-1.78.2-2.66.13-1.42.36-2.13.68-2.13l.4,0a113.17,113.17,0,0,0,13.56.6q2.55,0,9.4-.54l3.71-.29a1.4,1.4,0,0,1,.65.08c.06,0,.1.23.12.55,0,.51,0,1.22-.06,2.12s-.06,1.71-.06,2.13a18,18,0,0,0,.19,2.08A17.3,17.3,0,0,1,125.73,41.42Z" transform="translate(-1.87 -6.01)"/><path class="cls-3" d="M147.51,64.19a23.46,23.46,0,0,1-.21,2.58,23.33,23.33,0,0,0-.21,2.53,2.07,2.07,0,0,1-.17,1A3.82,3.82,0,0,1,146,71a16.49,16.49,0,0,1-8.1,2q-8.17,0-8.18-6.26c0-1.25,0-3.12.14-5.62s.14-4.38.14-5.62c0-.83-.48-1.25-1.44-1.25h-.37l-.37,0c-.72,0-1.08-.26-1.08-.77,0-.3,0-.76.07-1.38s.08-1.09.08-1.39,0-1-.08-1.81-.07-1.42-.07-1.82.61-.58,1.82-.62c.68,0,1-.21,1.1-.57a21.08,21.08,0,0,0,.11-3.4c-.07-2.43-.11-3.59-.11-3.48,0-2.19.21-3.28.62-3.28a9.86,9.86,0,0,1,2.18.34,22.46,22.46,0,0,0,2.24.42c1,.13,2.42.31,4.36.54.48,0,.71.2.71.48,0,.76-.06,1.9-.18,3.43s-.19,2.68-.19,3.45c0,.93.28,1.39.82,1.39s1.67,0,3-.08,2.35-.09,3-.09c.41,0,.62.14.62.42,0,.44-.05,1.09-.14,2a18.14,18.14,0,0,0-.14,1.95c0,.46,0,1.12,0,2s0,1.52,0,2-.27.59-.82.59c-.38,0-1,0-1.9,0s-1.52,0-1.89,0h-2.13c-.28,0-.42.41-.42,1.24v2c0,.91,0,1.58,0,2A7.12,7.12,0,0,0,140,63c.51.81,1.51,1.22,3,1.22a9,9,0,0,0,2-.33,9.55,9.55,0,0,1,1.86-.32C147.31,63.57,147.51,63.77,147.51,64.19Z" transform="translate(-1.87 -6.01)"/><path class="cls-3" d="M177.73,58.55A14.32,14.32,0,0,1,173.78,69a15.33,15.33,0,0,1-20.63.06,13.7,13.7,0,0,1-4-10.2A14.91,14.91,0,0,1,153,48.23q3.84-4.09,10.42-4.09a13.92,13.92,0,0,1,10.36,4A14.13,14.13,0,0,1,177.73,58.55Zm-9.29,0a6.09,6.09,0,0,0-1.39-3.95,4.4,4.4,0,0,0-3.59-1.71,4.58,4.58,0,0,0-3.69,1.76,5.94,5.94,0,0,0-1.36,3.9,6,6,0,0,0,1.36,3.94,4.58,4.58,0,0,0,3.69,1.76,4.53,4.53,0,0,0,3.65-1.76A6,6,0,0,0,168.44,58.55Z" transform="translate(-1.87 -6.01)"/><path class="cls-3" d="M191.46,55.44q0,7.73.06,11.87c0,.43,0,1.18.09,2.23s.08,1.71.08,2.24-.24.63-.71.71a31.2,31.2,0,0,1-4.59.22,24.8,24.8,0,0,1-4.33-.22.86.86,0,0,1-.71-.77V70.51q0-2.52.06-7.55t.06-7.52q0-11.89,0-10.85a91.28,91.28,0,0,0-.71-10.79,2.79,2.79,0,0,1-.06-.48c0-.41.25-.62.74-.62h10.11c.47,0,.69.2.65.59l0,.51Q191.47,46,191.46,55.44Z" transform="translate(-1.87 -6.01)"/><path class="cls-3" d="M213.21,49.58a1.35,1.35,0,0,1-.42.76,6.66,6.66,0,0,0-1.59-.2,5,5,0,0,0-2.8.74A2.69,2.69,0,0,0,207,53.29a4.24,4.24,0,0,0,1.44,2.52,28.8,28.8,0,0,1,2.69,3.08,8.11,8.11,0,0,1,1.45,4.62,9.23,9.23,0,0,1-.57,3.06,5.86,5.86,0,0,1-1.64,2.6,19.57,19.57,0,0,1-4.9,3.06,14.23,14.23,0,0,1-5.58,1.31c-.38,0-1.22-1-2.53-3.08s-2-3.3-2-3.75c0-.17.1-.27.31-.31l4-.74c1.66-.53,2.5-1.39,2.5-2.6a4.73,4.73,0,0,0-1.45-2.89c-1.72-1.91-2.61-2.92-2.69-3a7.36,7.36,0,0,1-1.44-4.31q0-4.24,4.3-7.22A14.39,14.39,0,0,1,209.19,43c.3,0,1.05,1,2.24,3A14.65,14.65,0,0,1,213.21,49.58Z" transform="translate(-1.87 -6.01)"/><path class="cls-3" d="M110.89,87c0,.38-.21.57-.62.57-.72,0-3.56-.15-8.53-.43q-.17,7.17-.17,10,0,3.34.27,10t.27,10.06c0,.35-.09.58-.26.68a4.16,4.16,0,0,1-.79.14,41.11,41.11,0,0,1-5,.22A39.56,39.56,0,0,1,91,118a.83.83,0,0,1-.79-.88q0-3.35.28-10t.28-10q0-2.2-.22-9.86-5.67.57-9,.57c-.3,0-.45-.1-.45-.28a15.78,15.78,0,0,1,.4-2.19q.45-2,.51-2.4c0-.89.12-1.78.2-2.66.13-1.42.35-2.13.67-2.13l.4,0a113.81,113.81,0,0,0,13.57.59q2.55,0,9.4-.53l3.71-.29a1.69,1.69,0,0,1,.65.07c.06,0,.09.24.11.56,0,.51,0,1.21,0,2.12s-.06,1.71-.06,2.12a17.49,17.49,0,0,0,.18,2.09A15.78,15.78,0,0,1,110.89,87Z" transform="translate(-1.87 -6.01)"/><path class="cls-3" d="M141,104.08a14.28,14.28,0,0,1-4,10.48,15.33,15.33,0,0,1-20.63.06,13.71,13.71,0,0,1-4-10.2,15,15,0,0,1,3.85-10.66q3.86-4.1,10.42-4.09a13.94,13.94,0,0,1,10.37,4A14.2,14.2,0,0,1,141,104.08Zm-9.28,0a6.12,6.12,0,0,0-1.39-4,4.43,4.43,0,0,0-3.6-1.71,4.55,4.55,0,0,0-3.68,1.75,6.34,6.34,0,0,0,0,7.85,4.7,4.7,0,0,0,7.33,0A6.07,6.07,0,0,0,131.68,104.08Z" transform="translate(-1.87 -6.01)"/><path class="cls-3" d="M172.2,97.82a35.86,35.86,0,0,1-.34,6.69q-.42,1.41-6.2,10.25c-.6.92-2.16,3.07-4.67,6.43-2.78,3.7-4.35,5.65-4.73,5.86s-3.35.43-8.7.43a3.21,3.21,0,0,1-1.64-.29c-.24-.77-.56-1.69-.93-2.74-.31-.67-.61-1.34-.91-2a6.57,6.57,0,0,1-.65-2q0-.54.48-.54,7.88,0,7.87-3.59a51.1,51.1,0,0,0-3.85-5.64c-2.66-3.64-4.12-5.95-4.39-6.91a39.19,39.19,0,0,1-.22-5.86c0-.68,0-1.71.05-3.08s.06-2.39.06-3.07c0-.49.31-.73.93-.73,1,0,2.42,0,4.38.08s3.41.09,4.37.09q.6,0,.6.87t-.09,2.4c-.05,1.06-.08,1.86-.08,2.39,0,2.38,0,4,.11,4.84a11.57,11.57,0,0,0,1.7,3.68c1.13,1.87,2,2.81,2.47,2.81s1.17-.93,2.2-2.78a12.77,12.77,0,0,0,1.56-3.54,47.64,47.64,0,0,0,.29-5.41c0-.51-.05-1.28-.15-2.32s-.14-1.82-.14-2.35q0-.54.6-.54c1,0,2.4,0,4.32-.11s3.35-.11,4.31-.11a1,1,0,0,1,1,.73A27.67,27.67,0,0,1,172.2,97.82Z" transform="translate(-1.87 -6.01)"/><path class="cls-3" d="M202.84,98.36a27.38,27.38,0,0,1-.31,5.72,33.46,33.46,0,0,1-3.9,6.83,74.84,74.84,0,0,1-4.85,6.46q-.74.87-4.44.87a24,24,0,0,1-4.2-.22,2.06,2.06,0,0,1-1-.57,65.11,65.11,0,0,1-4.84-6.4,38,38,0,0,1-4-6.71,18.31,18.31,0,0,1-.71-5.86q0-1.11,0-3.33t0-3.36c0-.49.33-.73,1-.73,1,0,2.41,0,4.35.08s3.38.09,4.34.09c.44,0,.65.29.65.87s0,1.33-.11,2.4-.11,1.87-.11,2.42c0,2,.05,3.57.17,4.81a11.41,11.41,0,0,0,1.64,3.63c1.08,1.87,1.86,2.8,2.35,2.8s1.23-.91,2.27-2.75a11.78,11.78,0,0,0,1.61-3.51A44.53,44.53,0,0,0,193,97c0-.55-.06-1.37-.17-2.48a24.29,24.29,0,0,1-.17-2.45c0-.58.2-.87.59-.87l2,0,2,0c.46,0,1.14,0,2.06-.11s1.6-.11,2.05-.11a.91.91,0,0,1,.93.73A28.31,28.31,0,0,1,202.84,98.36Z" transform="translate(-1.87 -6.01)"/><path class="cls-3" d="M232.64,102.64c0,1.91-.62,3-1.84,3.26q-.31,0-5.87.62c-2.22.24-5.55.54-10,.88a4,4,0,0,0,2.4,2.8,8.49,8.49,0,0,0,3.74.79,10.66,10.66,0,0,0,5.07-1.36c.72-.45,1.44-.9,2.15-1.36.4.19,1.06,1.16,2,2.89a10.68,10.68,0,0,1,1.4,3.32c0,.13-.14.35-.42.65-2.31,2.47-5.88,3.71-10.74,3.71q-6.73,0-10.87-3.94a14,14,0,0,1-4.25-10.68,15.17,15.17,0,0,1,3.8-10.67,13.31,13.31,0,0,1,10.36-4.31,12.27,12.27,0,0,1,9.23,4A13.18,13.18,0,0,1,232.64,102.64Zm-9.91-1.73a4.4,4.4,0,0,0-1.25-3.09,4,4,0,0,0-3-1.33,3.58,3.58,0,0,0-2.95,1.5,5.16,5.16,0,0,0-1.08,3.26.7.7,0,0,0,.8.77,49.09,49.09,0,0,0,6.51-.66C222.41,101.27,222.73,101.12,222.73,100.91Z" transform="translate(-1.87 -6.01)"/><path class="cls-3" d="M254.53,100.37c0,.74-.41,1.11-1.22,1.11-.36,0-.88,0-1.57-.07s-1.2-.07-1.54-.07a5.05,5.05,0,0,0-3.2.73c-.57.49-.85,1.48-.85,3,0,.81,0,2,0,3.69s0,2.89,0,3.7c0,.55,0,1.36.11,2.45s.12,1.89.12,2.42-.31.71-.94.76c-.9.08-2.29.12-4.16.12s-3.23-.06-4.3-.17c-.63-.08-.94-.39-.94-.94q0-2.27,0-6.78t0-6.78a41.19,41.19,0,0,0-1.22-11,1.91,1.91,0,0,1-.06-.43.55.55,0,0,1,.43-.56q1.56-.18,4.56-.63c3-.58,4.52-.88,4.61-.88.34,0,.56.6.66,1.79s.26,1.78.51,1.78c-.27,0,.5-.49,2.32-1.48a10.82,10.82,0,0,1,5.24-1.49c1.05,0,1.58.23,1.58.68a20.35,20.35,0,0,1-.17,2.32c-.11,1.08-.18,1.85-.2,2.32s0,1.28,0,2.18C254.51,99.28,254.53,100,254.53,100.37Z" transform="translate(-1.87 -6.01)"/><path class="cls-3" d="M274.41,95.11a1.38,1.38,0,0,1-.42.76,6.66,6.66,0,0,0-1.59-.2,5,5,0,0,0-2.8.74,2.67,2.67,0,0,0-1.36,2.41,4.24,4.24,0,0,0,1.44,2.52,29,29,0,0,1,2.69,3.08,8.19,8.19,0,0,1,1.45,4.62,9.23,9.23,0,0,1-.57,3.06,6,6,0,0,1-1.64,2.6,19.57,19.57,0,0,1-4.9,3.06,14.21,14.21,0,0,1-5.58,1.3c-.38,0-1.22-1-2.54-3.07s-2-3.3-2-3.75c0-.17.1-.27.31-.31l4-.74c1.66-.53,2.49-1.4,2.49-2.6A4.69,4.69,0,0,0,262,105.7c-1.72-1.91-2.62-2.92-2.69-3a7.3,7.3,0,0,1-1.45-4.31q0-4.24,4.31-7.22a14.27,14.27,0,0,1,8.24-2.63c.3,0,1.05,1,2.24,3A14.65,14.65,0,0,1,274.41,95.11Z" transform="translate(-1.87 -6.01)"/><path class="cls-3" d="M304.43,102.64c0,1.91-.61,3-1.84,3.26q-.31,0-5.86.62c-2.23.24-5.55.54-10,.88a4,4,0,0,0,2.41,2.8,8.44,8.44,0,0,0,3.73.79,10.66,10.66,0,0,0,5.07-1.36l2.16-1.36c.39.19,1.06,1.16,2,2.89a10.42,10.42,0,0,1,1.4,3.32c0,.13-.14.35-.42.65q-3.47,3.7-10.73,3.71-6.75,0-10.88-3.94a14,14,0,0,1-4.25-10.68A15.22,15.22,0,0,1,281,93.55a13.31,13.31,0,0,1,10.36-4.31,12.27,12.27,0,0,1,9.23,4A13.13,13.13,0,0,1,304.43,102.64Zm-9.91-1.73a4.4,4.4,0,0,0-1.25-3.09,4,4,0,0,0-3-1.33,3.59,3.59,0,0,0-2.95,1.5,5.15,5.15,0,0,0-1.07,3.26.69.69,0,0,0,.79.77,48.94,48.94,0,0,0,6.51-.66C294.21,101.27,294.52,101.12,294.52,100.91Z" transform="translate(-1.87 -6.01)"/></svg>